<svg width="300" height="101" viewBox="0 0 728 245" xmlns="http://www.w3.org/2000/svg" xmlns:sketch="http://www.bohemiancoding.com/sketch/ns"><title>Artboard 1</title><desc>Created with Sketch.</desc><defs><linearGradient x1="0%" y1="0%" x2="102%" y2="101%" id="a"><stop stop-color="#3023AE" offset="0%"/><stop stop-color="#C96DD8" offset="100%"/></linearGradient></defs><path d="M8.334 189.943h26.823v-80.213c.171-9.754 2.995-16.813 8.47-21.176 4.877-4.449 10.738-6.674 17.583-6.674 6.075 0 11.936 2.225 17.583 6.674l19.508-23.23c-7.957-6.674-17.283-10.096-27.978-10.267-14.289 0-25.839 5.262-34.652 15.786h-.513v-14.117h-26.823v133.217zm99.093 0h26.823v-79.314c0-9.326 2.524-16.428 7.572-21.305 4.963-4.963 11.294-7.444 18.994-7.444 7.7 0 13.989 2.481 18.866 7.444 4.963 4.877 7.444 11.978 7.444 21.305v79.314h26.823v-88.555c-.428-15.23-5.176-26.78-14.246-34.652-9.155-7.786-19.251-11.679-30.288-11.679-14.289 0-25.839 5.262-34.652 15.786h-.513v-68.02h-26.823v187.12zm154.265-6.93l-7.315 22.331c-1.198 3.85-3.294 6.759-6.289 8.727-2.995 1.882-6.246 2.823-9.754 2.823h-7.829v25.283h8.855c8.299 0 15.743-1.84 22.331-5.519 6.503-3.85 11.593-10.781 15.273-20.791l57.368-160.811h-28.492l-31.443 93.304h-.513l-31.572-93.304h-28.363l47.743 127.955zm95.115-126.287h-13.347v20.406h13.347v79.956c0 10.524 3.08 18.567 9.241 24.128 5.989 5.818 13.69 8.727 23.101 8.727h13.989v-25.283h-10.011c-6.503.171-9.668-3.123-9.497-9.882v-77.646h19.508v-20.406h-19.508v-40.556h-26.823v40.556zm58.287 133.217h26.823v-79.314c0-9.326 2.524-16.428 7.572-21.305 4.963-4.963 11.294-7.444 18.994-7.444 7.7 0 13.989 2.481 18.866 7.444 4.963 4.877 7.444 11.978 7.444 21.305v79.314h26.823v-88.555c-.428-15.23-5.176-26.78-14.246-34.652-9.155-7.786-19.251-11.679-30.288-11.679-14.289 0-25.839 5.262-34.652 15.786h-.513v-68.02h-26.823v187.12zm118.478 0h26.823v-79.314c0-9.326 2.567-16.428 7.7-21.305 4.877-4.963 11.166-7.444 18.866-7.444 7.7 0 14.032 2.481 18.994 7.444 4.877 4.877 7.315 11.978 7.315 21.305v79.314h26.823v-79.314c0-9.326 2.524-16.428 7.572-21.305 4.963-4.963 11.294-7.444 18.994-7.444 7.7 0 13.989 2.481 18.866 7.444 4.877 4.877 7.315 11.978 7.315 21.305v79.314h26.823v-88.555c-.342-15.23-5.048-26.78-14.117-34.652-9.155-7.786-19.251-11.679-30.288-11.679-17.54-.171-31.529 5.647-41.967 17.454-4.62-5.134-9.711-9.369-15.273-12.706-5.647-2.995-13.091-4.577-22.331-4.749-14.374 0-25.968 5.262-34.78 15.786h-.513v-14.117h-26.823v133.217z" sketch:type="MSShapeGroup" fill="url(#a)"/></svg>