<svg width="300" height="101" viewBox="0 0 728 245" xmlns="http://www.w3.org/2000/svg"><title>Artboard 1</title><desc>Created with Sketch.</desc><defs><linearGradient x1="0%" y1="0%" x2="102%" y2="101%" id="a"><stop stop-color="#3023AE" offset="0%"/><stop stop-color="#C96DD8" offset="100%"/></linearGradient></defs><path d="M8.334 189.943h26.823V109.73c.17-9.754 2.995-16.813 8.47-21.176 4.877-4.45 10.738-6.674 17.583-6.674 6.075 0 11.936 2.225 17.583 6.674L98.3 65.324C90.345 58.65 81.02 55.228 70.324 55.057c-14.29 0-25.84 5.262-34.652 15.786h-.512V56.726H8.335v133.217zm99.093 0h26.823V110.63c0-9.327 2.524-16.43 7.572-21.306 4.963-4.963 11.294-7.444 18.994-7.444 7.7 0 13.99 2.48 18.866 7.444 4.963 4.877 7.444 11.978 7.444 21.305v79.313h26.823v-88.555c-.43-15.23-5.177-26.78-14.247-34.652-9.155-7.786-19.25-11.68-30.288-11.68-14.29 0-25.84 5.263-34.652 15.787h-.513V2.823h-26.823v187.12zm154.265-6.93l-7.315 22.33c-1.198 3.85-3.294 6.76-6.29 8.728-2.994 1.883-6.245 2.824-9.753 2.824h-7.83v25.283h8.856c8.3 0 15.743-1.84 22.33-5.52 6.504-3.85 11.594-10.78 15.274-20.79l57.368-160.81H305.84l-31.443 93.303h-.513l-31.572-93.304H213.95L261.69 183.01zm95.115-126.287H343.46v20.406h13.347v79.956c0 10.524 3.08 18.567 9.24 24.128 5.99 5.818 13.69 8.727 23.102 8.727h13.988V164.66h-10.01c-6.504.17-9.67-3.123-9.498-9.882V77.132h19.508V56.726H383.63V16.17h-26.823v40.556zm58.287 133.217h26.823V110.63c0-9.327 2.524-16.43 7.572-21.306 4.962-4.963 11.293-7.444 18.993-7.444 7.7 0 13.99 2.48 18.866 7.444 4.962 4.877 7.443 11.978 7.443 21.305v79.313h26.823v-88.555c-.428-15.23-5.176-26.78-14.246-34.652-9.155-7.786-19.25-11.68-30.288-11.68-14.29 0-25.84 5.263-34.652 15.787h-.513V2.823h-26.823v187.12zm118.478 0h26.823V110.63c0-9.327 2.567-16.43 7.7-21.306 4.877-4.963 11.166-7.444 18.866-7.444 7.7 0 14.033 2.48 18.995 7.444 4.877 4.877 7.315 11.978 7.315 21.305v79.313h26.823V110.63c0-9.327 2.524-16.43 7.572-21.306 4.963-4.963 11.294-7.444 18.994-7.444 7.7 0 13.988 2.48 18.865 7.444 4.877 4.877 7.315 11.978 7.315 21.305v79.313h26.823v-88.555c-.342-15.23-5.048-26.78-14.117-34.652-9.155-7.786-19.25-11.68-30.288-11.68-17.54-.17-31.53 5.648-41.967 17.455-4.62-5.133-9.71-9.368-15.272-12.705-5.647-2.995-13.09-4.577-22.33-4.75-14.375 0-25.97 5.263-34.78 15.787h-.514V56.725H533.57v133.217z" fill="url(#a)"/></svg>